<?xml version="1.0" encoding="utf-8"?>
<!-- Generator: Adobe Illustrator 23.0.2, SVG Export Plug-In . SVG Version: 6.00 Build 0)  -->
<svg version="1.1" id="Layer_1" xmlns="http://www.w3.org/2000/svg" xmlns:xlink="http://www.w3.org/1999/xlink" x="0px" y="0px"
	 viewBox="0 0 1366 768" style="enable-background:new 0 0 1366 768;" xml:space="preserve">
<style type="text/css">
	.st0{stroke:#000000;stroke-miterlimit:10;}
	.st1{font-family:'RobotoMono-Regular';}
	.st2{font-size:96.4286px;}
</style>
<path d="M684,250.49c0,0,193,49.77,215,50.52s176.04-38.18,214-50.52c0,0,35.41-1.81-215-53.49C898,197,668,243.8,684,250.49z"/>
<path class="st0" d="M785.5,286v51.2c0,0,3,19.1,38,21.4s159,4.58,172-6.11c13-10.7,11-8.41,12-16.81s0-49.67,0-49.67
	s-94,25.22-110,24.45c-16-0.76-111-24.45-111-24.45"/>
<path d="M735.5,253.5c0,0-2,3.22-2,7.52s0,58.01,0,58.01s-12,6.45-12,16.11s6,22.56,12,20.41c0,0,0,35.45-5,52.64
	s-20,54.79-20,54.79l1,1.07c0,0,5,13.97,24,12.89c19-1.07,29-4.3,30-12.89c1-8.59-1-40.82-2-51.56s-11-54.79-12-59.08
	c0,0,7-2.15,7-17.19s-12-16.11-12-16.11v-59.08c0,0,0-2.15,1-4.3L735.5,253.5z"/>
<text transform="matrix(1 0 0 1 785.9277 458.7393)" class="st1 st2">TUTO</text>
</svg>
