<svg xmlns="http://www.w3.org/2000/svg" width="46.81" height="47.044" viewBox="0 0 46.81 47.044"><defs><style>.a{fill:#f56363;}</style></defs><g transform="translate(-2.252 -1.953)"><path class="a" d="M25.619,36.9a17.469,17.469,0,1,0-15.152-8.785l-6.88,6.867a4.554,4.554,0,1,0,6.446,6.434l6.877-6.864A17.435,17.435,0,0,0,25.619,36.9ZM14.328,8.166A15.943,15.943,0,1,1,29.3,34.934L10.081,15.749a15.943,15.943,0,0,1,4.247-7.583ZM9.746,17.557,27.488,35.265a15.891,15.891,0,0,1-9.461-1.832l2.212-2.208a.757.757,0,0,0,0-1.072l-5.373-5.362a.761.761,0,0,0-1.074,0L11.581,27a15.806,15.806,0,0,1-1.835-9.442ZM8.959,40.34a3.036,3.036,0,1,1-4.3-4.29L14.33,26.4l4.3,4.29Z" transform="translate(0 0)"/><path class="a" d="M55,48a7,7,0,1,0,7,7,7,7,0,0,0-7-7Zm0,12a5,5,0,1,1,5-5,5,5,0,0,1-5,5Z" transform="translate(-12.938 -13.003)"/><path class="a" d="M42,50h4v2H42Z" transform="translate(-9.225 -13.003)"/><path class="a" d="M38,50h2v2H38Z" transform="translate(-8.009 -13.003)"/><path class="a" d="M44,54h2v2H44Z" transform="translate(-9.354 -13.003)"/><path class="a" d="M35,54h7v2H35Z" transform="translate(-8.033 -13.003)"/><path class="a" d="M38,58h8v2H38Z" transform="translate(-8.938 -13.003)"/><path class="a" d="M32,58h4v2H32Z" transform="translate(-6.904 -13.003)"/></g></svg>