<svg xmlns="http://www.w3.org/2000/svg" width="46.81" height="46.81" viewBox="0 0 46.81 46.81"><defs><style>.a{fill:#f56363;}</style></defs><g transform="translate(0 -0.002)"><g transform="translate(0 0.002)"><path class="a" d="M45.563,7.6,39.18,1.21a4.351,4.351,0,0,0-6.021,0L4.564,30.091a1.071,1.071,0,0,0-.268.457L.04,45.455a1.065,1.065,0,0,0,1.315,1.316L16.25,42.512a1.069,1.069,0,0,0,.457-.268L45.563,13.621a4.26,4.26,0,0,0,0-6.023ZM28.523,8.952l3.916,3.916L11.994,33.314l-1.467-2.936a1.064,1.064,0,0,0-.952-.588h-1.7ZM2.613,44.2,4,39.348l3.465,3.465ZM14.894,40.69,9.8,42.144,4.667,37.008l1.454-5.09h2.8l1.834,3.667a1.064,1.064,0,0,0,.476.476l3.667,1.834v2.8Zm2.128-1.75v-1.7a1.064,1.064,0,0,0-.588-.952L13.5,34.818,33.944,14.372l3.916,3.916Zm27.04-26.8-4.691,4.649-9.35-9.35,4.646-4.688a2.178,2.178,0,0,1,3.009,0l6.383,6.383a2.127,2.127,0,0,1,0,3.006Z" transform="translate(0 -0.002)"/></g></g></svg>