<svg xmlns="http://www.w3.org/2000/svg" width="46.808" height="46.808" viewBox="0 0 46.808 46.808"><defs><style>.a{fill:#f56363;}</style></defs><g transform="translate(-0.004 0)"><path class="a" d="M94.651,69.834h.78a.78.78,0,0,0,0-1.56h-.78a.78.78,0,0,0,0,1.56Zm0,0" transform="translate(-85.285 -62.032)"/><path class="a" d="M137.315,69.834h10.142a.78.78,0,0,0,0-1.56H137.315a.78.78,0,1,0,0,1.56Zm0,0" transform="translate(-124.049 -62.032)"/><path class="a" d="M39.73,24.965H38.019a3.643,3.643,0,0,0-1.048.156.72.72,0,0,0-.078.022,3.614,3.614,0,0,0-1.133.641,8.21,8.21,0,0,1,4.43-6.391.78.78,0,0,0-.793-1.343,10.275,10.275,0,0,0-4.621,5.179c-.041-.135-.086-.267-.134-.39a6.522,6.522,0,0,0-1.872-2.652V7.022a2.34,2.34,0,0,0-2.34-2.341H27.165a2.341,2.341,0,0,0-2.2-1.56H20.789a4.665,4.665,0,0,0-8.8,0H7.805a2.34,2.34,0,0,0-2.2,1.56H2.345A2.34,2.34,0,0,0,0,7.022V44.468a2.34,2.34,0,0,0,2.341,2.341H30.429a2.284,2.284,0,0,0,1.048-.254,9.582,9.582,0,0,0,2.174.254h2.916c5.648,0,10.244-4.9,10.244-10.922V32.508a7.333,7.333,0,0,0-7.081-7.544ZM33.183,23.4a10.478,10.478,0,0,1,.436,1.88c-.078-.034-.147-.078-.226-.1a3.541,3.541,0,0,0-1.2-.208H30.489c-.214,0-.424.015-.634.034-.019-.005-.034-.018-.054-.022-2.582-.517-2.546-3.529-2.449-4.607a12.675,12.675,0,0,1,1.5-.084h.016A4.6,4.6,0,0,1,33.183,23.4ZM25.257,42.128H4.685V9.362h.924a2.34,2.34,0,0,0,2.2,1.56H24.968a2.341,2.341,0,0,0,2.2-1.56h.923v9.373c-2.015.072-2.148.633-2.22.953-.275,1.6-.135,4.447,1.722,5.947a7.581,7.581,0,0,0-4.183,6.873v3.378a11.349,11.349,0,0,0,1.849,6.241ZM31.209,7.022V19.23a6.242,6.242,0,0,0-1.56-.427V9.362a1.56,1.56,0,0,0-1.56-1.56h-.78V6.242h3.12a.78.78,0,0,1,.78.78ZM7.805,4.681h4.759a.642.642,0,0,0,.078-.016.752.752,0,0,0,.144-.029.735.735,0,0,0,.143-.059.75.75,0,0,0,.306-.306.7.7,0,0,0,.06-.143.651.651,0,0,0,.031-.072,3.12,3.12,0,0,1,6.114,0,.783.783,0,0,0,.033.083.9.9,0,0,0,.044.111.751.751,0,0,0,.095.141.736.736,0,0,0,.073.083.772.772,0,0,0,.151.1.61.61,0,0,0,.373.105h4.759a.78.78,0,0,1,.78.78v3.12a.78.78,0,0,1-.78.78H7.805a.78.78,0,0,1-.78-.78V5.462a.78.78,0,0,1,.78-.78ZM2.345,45.248a.78.78,0,0,1-.78-.78V7.022a.78.78,0,0,1,.78-.78h3.12V7.8h-.78a1.56,1.56,0,0,0-1.56,1.56V42.127a1.56,1.56,0,0,0,1.56,1.56H26.5a10.435,10.435,0,0,0,1.905,1.56Zm42.907-9.362c0,5.161-3.9,9.362-8.684,9.362H33.652c-4.787,0-8.684-4.2-8.684-9.362V32.508a5.774,5.774,0,0,1,5.521-5.983h1.72a2,2,0,0,1,.655.117,2.335,2.335,0,0,1,1.466,2.23v.773a.78.78,0,1,0,1.56,0V28.87a2.336,2.336,0,0,1,1.456-2.234l.037-.011a2.128,2.128,0,0,1,.624-.1H39.73a5.776,5.776,0,0,1,5.522,5.985Zm0,0" transform="translate(0 0)"/><path class="a" d="M293.011,307.233a4.641,4.641,0,0,0-2.874,4.641.78.78,0,1,0,1.56,0,3.143,3.143,0,0,1,1.814-3.163.78.78,0,1,0-.5-1.478Zm0,0" transform="translate(-263.608 -279.108)"/><path class="a" d="M72.171,145.074H69.83a1.56,1.56,0,0,0-1.56,1.56v2.341a1.56,1.56,0,0,0,1.56,1.56h2.341a1.56,1.56,0,0,0,1.56-1.56v-2.341A1.56,1.56,0,0,0,72.171,145.074Zm-2.341,3.9v-2.341h2.341v2.341Zm0,0" transform="translate(-62.025 -131.811)"/><path class="a" d="M72.171,221.875H69.83a1.56,1.56,0,0,0-1.56,1.56v2.34a1.561,1.561,0,0,0,1.56,1.561h2.341a1.561,1.561,0,0,0,1.56-1.561v-2.34A1.56,1.56,0,0,0,72.171,221.875Zm-2.341,3.9v-2.34h2.341v2.34Zm0,0" transform="translate(-62.025 -201.591)"/><path class="a" d="M72.171,298.676H69.83a1.56,1.56,0,0,0-1.56,1.56v2.34a1.56,1.56,0,0,0,1.56,1.56h2.341a1.56,1.56,0,0,0,1.56-1.56v-2.34A1.56,1.56,0,0,0,72.171,298.676Zm-2.341,3.9v-2.34h2.341v2.34Zm0,0" transform="translate(-62.025 -271.371)"/><path class="a" d="M72.171,375.473H69.83a1.56,1.56,0,0,0-1.56,1.56v2.341a1.56,1.56,0,0,0,1.56,1.56h2.341a1.56,1.56,0,0,0,1.56-1.56v-2.341A1.56,1.56,0,0,0,72.171,375.473Zm-2.341,3.9v-2.341h2.341v2.341Zm0,0" transform="translate(-62.025 -341.147)"/><path class="a" d="M145.85,172.236h10.922a.78.78,0,1,0,0-1.56H145.85a.78.78,0,1,0,0,1.56Zm0,0" transform="translate(-131.804 -155.072)"/><path class="a" d="M154.432,247.473h-8.581a.78.78,0,1,0,0,1.56h8.581a.78.78,0,1,0,0-1.56Zm0,0" transform="translate(-131.804 -224.849)"/><path class="a" d="M152.871,324.273H145.85a.78.78,0,1,0,0,1.56h7.021a.78.78,0,1,0,0-1.56Zm0,0" transform="translate(-131.804 -294.628)"/><path class="a" d="M152.871,401.074H145.85a.78.78,0,1,0,0,1.56h7.021a.78.78,0,1,0,0-1.56Zm0,0" transform="translate(-131.804 -364.407)"/></g></svg>