<svg xmlns="http://www.w3.org/2000/svg" width="78.792" height="51.126" viewBox="0 0 78.792 51.126">
  <defs>
    <style>
      .cls-1 {
        stroke: #000;
        stroke-miterlimit: 10;
      }

      .cls-2 {
        font-size: 16px;
        font-family: RobotoMono-Regular, Roboto Mono;
      }
    </style>
  </defs>
  <g id="logo_1" transform="translate(0 0)">
    <path id="Path_1" data-name="Path 1" d="M683.348,206.767s35.24,9.088,39.257,9.224,32.143-6.971,39.075-9.224c0,0,6.465-.331-39.257-9.767C722.423,197,680.427,205.546,683.348,206.767Z" transform="translate(-683.202 -197)"/>
    <path id="Path_2" data-name="Path 2" class="cls-1" d="M785.5,286v9.348s.548,3.488,6.939,3.907,29.032.837,31.406-1.116,2.009-1.535,2.191-3.07,0-9.069,0-9.069-17.164,4.6-20.085,4.465S785.683,286,785.683,286" transform="translate(-766.821 -269.749)"/>
    <path id="Path_3" data-name="Path 3" d="M713.43,253.5a2.854,2.854,0,0,0-.365,1.373v10.592s-2.191,1.177-2.191,2.942,1.1,4.119,2.191,3.727c0,0,0,6.473-.913,9.611s-3.652,10-3.652,10l.183.2s.913,2.55,4.382,2.354,5.3-.785,5.478-2.354a84.6,84.6,0,0,0-.365-9.415c-.183-1.961-2.009-10-2.191-10.788,0,0,1.278-.392,1.278-3.138s-2.191-2.942-2.191-2.942V254.873a2.076,2.076,0,0,1,.183-.785Z" transform="translate(-703.881 -243.184)"/>
    <text id="TUTO" class="cls-2" transform="translate(18.757 46.35)"><tspan x="0" y="0">TUTO</tspan></text>
  </g>
</svg>
